<?xml version="1.0" standalone="no"?><svg xmlns="http://www.w3.org/2000/svg" viewBox="0 0 1440 320"><path fill="#ff5500" fill-opacity="1" d="M0,160L30,176C60,192,120,224,180,224C240,224,300,192,360,181.3C420,171,480,181,540,208C600,235,660,277,720,282.7C780,288,840,256,900,245.3C960,235,1020,245,1080,218.7C1140,192,1200,128,1260,128C1320,128,1380,192,1410,224L1440,256L1440,320L1410,320C1380,320,1320,320,1260,320C1200,320,1140,320,1080,320C1020,320,960,320,900,320C840,320,780,320,720,320C660,320,600,320,540,320C480,320,420,320,360,320C300,320,240,320,180,320C120,320,60,320,30,320L0,320Z"></path></svg>