<svg id="visual" viewBox="0 0 900 600" width="900" height="600" xmlns="http://www.w3.org/2000/svg" xmlns:xlink="http://www.w3.org/1999/xlink" version="1.1"><path d="M0 542L8.8 540.2C17.7 538.3 35.3 534.7 53 531.8C70.7 529 88.3 527 106 524.7C123.7 522.3 141.3 519.7 159 524.7C176.7 529.7 194.3 542.3 212 542.5C229.7 542.7 247.3 530.3 265 527.7C282.7 525 300.3 532 318 538.8C335.7 545.7 353.3 552.3 371 552.5C388.7 552.7 406.3 546.3 423.8 543.7C441.3 541 458.7 542 476.2 539.7C493.7 537.3 511.3 531.7 529 532.7C546.7 533.7 564.3 541.3 582 547.3C599.7 553.3 617.3 557.7 635 556.7C652.7 555.7 670.3 549.3 688 543.2C705.7 537 723.3 531 741 530.7C758.7 530.3 776.3 535.7 794 537C811.7 538.3 829.3 535.7 847 534.5C864.7 533.3 882.3 533.7 891.2 533.8L900 534L900 601L891.2 601C882.3 601 864.7 601 847 601C829.3 601 811.7 601 794 601C776.3 601 758.7 601 741 601C723.3 601 705.7 601 688 601C670.3 601 652.7 601 635 601C617.3 601 599.7 601 582 601C564.3 601 546.7 601 529 601C511.3 601 493.7 601 476.2 601C458.7 601 441.3 601 423.8 601C406.3 601 388.7 601 371 601C353.3 601 335.7 601 318 601C300.3 601 282.7 601 265 601C247.3 601 229.7 601 212 601C194.3 601 176.7 601 159 601C141.3 601 123.7 601 106 601C88.3 601 70.7 601 53 601C35.3 601 17.7 601 8.8 601L0 601Z" fill="#0066FF" stroke-linecap="round" stroke-linejoin="miter"></path></svg>